<?xml version="1.0" encoding="utf-8"?>
<!-- Generator: Adobe Illustrator 25.4.1, SVG Export Plug-In . SVG Version: 6.00 Build 0)  -->
<svg version="1.1" id="Layer_1" xmlns="http://www.w3.org/2000/svg" xmlns:xlink="http://www.w3.org/1999/xlink" x="0px" y="0px"
	 viewBox="0 0 512 512" style="enable-background:new 0 0 512 512;" xml:space="preserve">
<style type="text/css">
	.st0{fill:none;stroke:#FFFFFF;stroke-miterlimit:10;}
	.st1{fill:none;stroke:#FFFFFF;stroke-width:0.906;stroke-miterlimit:10;}
	.st2{fill:none;stroke:#000000;stroke-miterlimit:10;}
	.st3{fill:#0A4EA0;}
	.st4{fill:#1BC3FF;}
	.st5{fill:#23AACD;}
	.st6{fill:#E34613;}
	.st7{fill:#23A4C2;}
	.st8{fill:#C24123;}
	.st9{fill:#FF571B;}
	.st10{fill:#1BC3FF;stroke:#1BC3FF;stroke-width:2;stroke-miterlimit:10;}
	.st11{fill:#FFFFFF;}
	.st12{fill:#1BC3FF;stroke:#1BC3FF;stroke-width:0.9806;stroke-miterlimit:10;}
</style>
<g>
	<g>
		<line class="st9" x1="179.83" y1="175.68" x2="279.93" y2="175.68"/>
		<path class="st3" d="M279.93,193.27h-100.1c-9.71,0-17.58-7.87-17.58-17.58c0-9.71,7.87-17.58,17.58-17.58h100.1
			c9.71,0,17.58,7.87,17.58,17.58C297.52,185.4,289.65,193.27,279.93,193.27z"/>
	</g>
	<g>
		<line class="st9" x1="179.83" y1="336.32" x2="279.93" y2="336.32"/>
		<path class="st3" d="M279.93,353.91h-100.1c-9.71,0-17.58-7.87-17.58-17.58s7.87-17.58,17.58-17.58h100.1
			c9.71,0,17.58,7.87,17.58,17.58S289.65,353.91,279.93,353.91z"/>
	</g>
	<g>
		<path class="st9" d="M146.59,238.41c-3.78,7.43-9.45,14.2-16.75,19.78c-12.97,9.93-29.89,15.39-47.7,15.39H24.77
			c-9.72,0-17.58-7.87-17.58-17.58c0-9.72,7.87-17.58,17.58-17.58H146.59z"/>
		<path class="st3" d="M152.13,215.86c0,6.24-1.23,12.35-3.52,18.16h-46.34c2.24-1.06,4.31-2.29,6.2-3.74
			c3.17-2.46,8.48-7.56,8.48-14.42c0-10.68-14.29-22.6-34.82-22.6H24.77c-9.72,0-17.58-7.87-17.58-17.58
			c0-9.72,7.87-17.58,17.58-17.58h57.37C120.74,158.09,152.13,183.99,152.13,215.86z"/>
	</g>
	<g>
		<path class="st9" d="M146.54,273.58H24.77c-9.72,0-17.58-7.87-17.58-17.58c0-9.72,7.87-17.58,17.58-17.58h57.37
			c19.74,0,37.63,6.77,50.34,17.67C138.41,261.14,143.2,267.03,146.54,273.58z"/>
		<path class="st3" d="M152.13,296.18c0,16.05-8.09,31.48-22.29,42.34c-12.97,9.94-29.89,15.39-47.7,15.39H24.77
			c-9.72,0-17.58-7.87-17.58-17.58c0-9.72,7.87-17.58,17.58-17.58h57.37c9.98,0,19.56-2.95,26.33-8.13
			c3.17-2.46,8.48-7.56,8.48-14.42c0-6.64-5.54-13.8-14.68-18.2h46.25C150.9,283.69,152.13,289.8,152.13,296.18z"/>
	</g>
	<g>
		<g>
			<line class="st12" x1="24.76" y1="256" x2="328.8" y2="256"/>
			<g>
				<rect x="25.25" y="254.29" class="st4" width="303.07" height="3.42"/>
				<path class="st4" d="M327.82,254.78v2.44H25.74v-2.44H327.82 M328.8,253.8H24.76v4.4H328.8V253.8L328.8,253.8z"/>
			</g>
		</g>
		<g>
			<g>
				<g>
					<path class="st4" d="M24.76,275.29c-10.64,0-19.29-8.65-19.29-19.29c0-10.64,8.66-19.29,19.29-19.29H328.8
						c10.64,0,19.29,8.65,19.29,19.29c0,10.64-8.65,19.29-19.29,19.29H24.76z"/>
					<path class="st4" d="M328.8,237.2c10.37,0,18.8,8.43,18.8,18.8c0,10.37-8.43,18.8-18.8,18.8H24.76
						c-10.37,0-18.8-8.43-18.8-18.8c0-10.37,8.43-18.8,18.8-18.8H328.8 M328.8,236.22H24.76c-10.91,0-19.78,8.87-19.78,19.78
						c0,10.91,8.87,19.78,19.78,19.78H328.8c10.91,0,19.78-8.87,19.78-19.78C348.59,245.09,339.71,236.22,328.8,236.22L328.8,236.22
						z"/>
				</g>
			</g>
		</g>
	</g>
	<g>
		<path class="st3" d="M409.12,273.63c-4.5,0-9-1.72-12.43-5.15c-6.87-6.86-6.87-18,0-24.87l80.32-80.32
			c6.86-6.87,18.01-6.87,24.87,0c6.87,6.86,6.87,18,0,24.87l-80.32,80.32C418.13,271.91,413.62,273.63,409.12,273.63z"/>
	</g>
	<g>
		<path class="st3" d="M489.44,353.91c-4.5,0-9-1.72-12.43-5.15l-80.32-80.28c-6.87-6.86-6.87-18,0-24.87c6.86-6.86,18-6.87,24.87,0
			l80.32,80.28c6.87,6.86,6.87,18,0,24.87C498.44,352.19,493.94,353.91,489.44,353.91z"/>
	</g>
	<g>
		<path class="st4" d="M409.12,273.61c-4.5,0-9-1.72-12.43-5.15l-80.32-80.32c-6.87-6.86-6.87-18,0-24.87c6.86-6.87,18-6.87,24.87,0
			l80.32,80.32c6.87,6.86,6.87,18,0,24.87C418.13,271.89,413.62,273.61,409.12,273.61z"/>
	</g>
	<g>
		<path class="st4" d="M328.8,353.88c-4.5,0-9-1.72-12.44-5.16c-6.86-6.87-6.86-18,0.01-24.87l80.32-80.27
			c6.86-6.86,18-6.86,24.87,0.01c6.86,6.87,6.86,18-0.01,24.87l-80.32,80.27C337.8,352.16,333.3,353.88,328.8,353.88z"/>
	</g>
</g>
</svg>
